<svg version="1.1" id="Layer_1" xmlns="http://www.w3.org/2000/svg" xmlns:xlink="http://www.w3.org/1999/xlink" x="0px" y="0px"
	 width="100%" viewBox="0 0 466 121" enable-background="new 0 0 466 121" xml:space="preserve">
<path fill="none" opacity="1.000000" stroke="#000000" stroke-linecap="round" stroke-linejoin="round" stroke-width="6.000000"
	d="
M331.000000,95.000000 
	C328.296051,93.230995 326.795380,91.180420 326.859650,87.497551 
	C326.981750,80.502174 322.769501,74.580605 320.903442,68.027496 
	C317.931549,57.591240 314.490662,47.278698 310.929626,37.024429 
	C309.296936,32.322834 306.272522,28.216953 304.297729,23.586266 
	C303.264587,21.163662 299.714294,20.435179 297.002136,19.493870 
	C296.155121,19.199900 295.333344,18.833328 294.500000,18.499996 
"/>
<path fill="none" opacity="1.000000" stroke="#000000" stroke-linecap="round" stroke-linejoin="round" stroke-width="3.000000"
	d="
M328.000000,78.500000 
	C330.696167,72.763641 331.555573,66.468506 333.430817,60.478340 
	C337.164520,48.551510 340.371552,36.459164 344.157684,24.550140 
	C344.647644,23.009008 345.242432,19.571386 348.478943,20.568375 
	C350.968536,21.335293 353.054504,22.375481 353.113983,25.998129 
	C353.350647,40.412273 354.915344,54.723114 356.884552,69.015907 
	C358.020630,77.261604 358.005981,85.666313 358.491364,94.000504 
	C358.543732,94.900146 358.271210,95.897980 359.500000,96.250000 
"/>
<path fill="none" opacity="1.000000" stroke="#000000" stroke-linecap="round" stroke-linejoin="round" stroke-width="4.000000"
	d="
M161.500000,61.500000 
	C157.307404,65.658028 158.020767,71.468254 156.593079,76.526276 
	C155.168564,81.573112 154.399460,86.817146 153.563309,92.010193 
	C153.322906,93.503189 152.409485,94.647667 151.470535,94.881851 
	C149.345688,95.411812 149.224594,93.394333 149.027222,91.996155 
	C147.969528,84.504303 147.021286,76.997047 145.982193,69.502472 
	C145.771866,67.985413 145.065094,66.502037 145.053711,64.999596 
	C145.026779,61.451160 142.970474,63.291119 141.500000,63.500000 
"/>
<path fill="none" opacity="1.000000" stroke="#000000" stroke-linecap="round" stroke-linejoin="round" stroke-width="3.000000"
	d="
M303.000000,31.500000 
	C300.873169,38.004978 301.232971,44.832890 300.589142,51.508598 
	C299.289948,64.979744 298.521790,78.501694 297.472351,91.997849 
	C297.341522,93.680260 296.833344,95.333336 296.500000,97.000000 
"/>
<path fill="none" opacity="1.000000" stroke="#000000" stroke-linecap="round" stroke-linejoin="round" stroke-width="7.000000"
	d="
M27.500002,23.000000 
	C27.666668,39.833332 27.555868,56.676109 28.128197,73.495636 
	C28.378616,80.854912 28.212116,88.166664 28.000000,95.500000 
"/>
<path fill="none" opacity="1.000000" stroke="#000000" stroke-linecap="round" stroke-linejoin="round" stroke-width="8.000000"
	d="
M46.000000,77.000000 
	C48.885544,72.970886 54.071369,72.399506 57.594280,69.100685 
	C63.099892,63.945286 65.655029,57.858028 66.030785,50.501572 
	C66.467857,41.944832 65.234993,34.098412 59.048218,27.455095 
	C51.346478,19.185013 39.479355,16.531052 29.538328,21.575533 
	C27.932032,22.390633 26.992798,22.616261 25.448654,21.576235 
	C24.251396,20.769850 23.362667,19.108000 21.500000,19.500000 
"/>
<path fill="none" opacity="1.000000" stroke="#000000" stroke-linecap="round" stroke-linejoin="round" stroke-width="5.000000"
	d="
M243.500000,94.500000 
	C242.227951,95.071007 240.857361,95.552185 240.025009,93.986702 
	C238.275970,90.697166 236.578033,87.373024 235.056198,83.974838 
	C234.622223,83.005806 234.876343,81.800232 235.989349,80.985458 
	C240.908524,77.384514 238.886459,72.082733 238.831955,67.501999 
	C238.794327,64.340500 234.629288,62.454853 230.997726,62.984379 
	C227.363022,63.514366 226.987244,65.962227 226.958557,68.999611 
	C226.883026,77.000107 227.669968,85.023468 226.478363,92.996765 
	C226.300537,94.186676 225.833328,95.333328 225.499985,96.500000 
"/>
<path fill="none" opacity="1.000000" stroke="#000000" stroke-linecap="round" stroke-linejoin="round" stroke-width="4.000000"
	d="
M181.500000,96.500000 
	C179.510635,90.592003 180.886551,84.496819 180.491119,78.500587 
	C180.282379,75.335464 180.870468,72.165489 180.042603,68.988899 
	C178.947693,64.787674 175.815277,61.456352 172.515808,62.083191 
	C168.971024,62.756630 167.761444,65.327522 167.380402,68.987549 
	C166.684235,75.674240 167.352066,82.335709 167.059479,89.002609 
	C166.943893,91.636116 166.717361,94.143471 165.500000,96.500000 
"/>
<path fill="none" opacity="1.000000" stroke="#000000" stroke-linecap="round" stroke-linejoin="round" stroke-width="4.000000"
	d="
M445.500000,96.500000 
	C443.510620,90.592003 444.886566,84.496819 444.491119,78.500587 
	C444.282379,75.335464 444.870483,72.165489 444.042603,68.988899 
	C442.947662,64.787682 439.815277,61.456345 436.515808,62.083183 
	C432.971039,62.756622 431.761444,65.327522 431.380371,68.987541 
	C430.684204,75.674240 431.352051,82.335709 431.059479,89.002609 
	C430.943878,91.636116 430.717377,94.143471 429.500000,96.500000 
"/>
<path fill="none" opacity="1.000000" stroke="#000000" stroke-linecap="round" stroke-linejoin="round" stroke-width="4.000000"
	d="
M90.000000,96.500000 
	C88.315834,90.406349 89.128311,84.177292 89.005203,77.999893 
	C88.934914,74.472687 89.022430,70.983368 88.075462,67.479607 
	C87.042633,63.658157 84.158356,61.961277 81.015556,62.202625 
	C77.614876,62.463768 75.420738,65.064857 75.472984,69.000359 
	C75.568092,76.165764 75.434372,83.334282 75.537766,90.499458 
	C75.571205,92.816536 75.140228,94.824524 73.500000,96.500000 
"/>
<path fill="none" opacity="1.000000" stroke="#000000" stroke-linecap="round" stroke-linejoin="round" stroke-width="5.000000"
	d="
M221.500000,96.500000 
	C219.007782,90.666016 220.209595,84.522179 220.016708,78.499466 
	C219.920715,75.502541 220.304123,72.462006 219.935074,69.508110 
	C219.223373,63.811642 213.744736,60.694111 209.974228,63.464935 
	C207.491180,65.289665 207.004822,67.714745 206.988327,70.499931 
	C206.944794,77.835487 207.478409,85.180275 206.534973,92.504501 
	C206.322586,94.153297 206.564255,95.865463 204.500000,96.500000 
"/>
<path fill="none" opacity="1.000000" stroke="#000000" stroke-linecap="round" stroke-linejoin="round" stroke-width="5.000000"
	d="
M138.500000,96.500000 
	C136.007782,90.666016 137.209579,84.522179 137.016693,78.499466 
	C136.920700,75.502541 137.304092,72.462006 136.935059,69.508118 
	C136.223373,63.811642 130.744751,60.694130 126.974243,63.464954 
	C124.491180,65.289680 124.004852,67.714745 123.988327,70.499931 
	C123.944817,77.835487 124.478394,85.180267 123.534958,92.504501 
	C123.322571,94.153290 123.564262,95.865463 121.500000,96.500000 
"/>
<path fill="none" opacity="1.000000" stroke="#000000" stroke-linecap="round" stroke-linejoin="round" stroke-width="5.000000"
	d="
M422.500000,97.500000 
	C424.781677,92.106888 423.800476,87.449486 420.687958,82.384506 
	C417.955048,77.937302 416.827850,72.501999 415.003448,67.498741 
	C414.491425,66.094566 414.297729,64.477806 412.338562,63.957329 
	C409.812988,65.227638 409.997528,67.649025 409.998749,70.000000 
	C410.002228,76.833336 409.963165,83.666985 410.022186,90.499809 
	C410.040161,92.583435 409.889313,94.592667 409.000000,96.500000 
"/>
<path fill="none" opacity="1.000000" stroke="#000000" stroke-linecap="round" stroke-linejoin="round" stroke-width="5.000000"
	d="
M105.000000,93.500000 
	C111.187973,84.451546 109.638512,72.823952 113.976952,63.478638 
	C117.613007,63.554474 116.980659,65.508224 116.986641,67.000053 
	C117.016052,74.333275 117.042442,81.667046 116.977005,88.999794 
	C116.954086,91.567802 117.204849,94.061577 118.000000,96.500000 
"/>
<path fill="none" opacity="1.000000" stroke="#000000" stroke-linecap="round" stroke-linejoin="round" stroke-width="4.000000"
	d="
M194.000000,64.000000 
	C192.879333,72.481293 193.786819,81.002090 193.515503,89.500496 
	C193.449799,91.559151 193.668915,93.639267 192.500000,95.500000 
"/>
<path fill="none" opacity="1.000000" stroke="#000000" stroke-linecap="round" stroke-linejoin="round" stroke-width="5.000000"
	d="
M97.500000,62.500000 
	C93.231354,70.142151 95.505753,78.469261 95.035118,86.502060 
	C94.836052,89.899788 94.997589,93.316307 93.500000,96.500000 
"/>
<path fill="none" opacity="1.000000" stroke="#000000" stroke-linecap="round" stroke-linejoin="round" stroke-width="5.000000"
	d="
M384.500000,62.000000 
	C381.598907,63.223404 378.521423,63.178852 375.503784,62.950073 
	C372.035797,62.687153 370.144897,64.304939 370.058502,67.501579 
	C369.810944,76.663757 370.344818,85.833336 369.393036,95.617371 
	C374.500000,95.297348 379.000000,95.918793 383.500000,95.000000 
"/>
<path fill="none" opacity="1.000000" stroke="#000000" stroke-linecap="round" stroke-linejoin="round" stroke-width="4.000000"
	d="
M29.000000,77.000000 
	C33.807335,76.079376 38.838543,75.854187 43.456161,76.730888 
	C48.935726,77.771233 52.684532,82.223427 55.465717,87.019875 
	C59.038170,93.180946 63.506584,98.214905 70.500000,100.500000 
"/>
<path fill="none" opacity="1.000000" stroke="#000000" stroke-linecap="round" stroke-linejoin="round" stroke-width="4.000000"
	d="
M405.500000,61.500000 
	C402.534271,63.272591 399.251404,63.082508 396.000275,62.989883 
	C392.180359,62.881046 390.326355,64.323372 390.432037,68.501717 
	C390.655304,77.329407 390.500000,86.166664 390.500000,95.654327 
	C395.172089,94.985382 399.899658,96.523842 404.500000,94.500000 
"/>
<path fill="none" opacity="1.000000" stroke="#000000" stroke-linecap="round" stroke-linejoin="round" stroke-width="4.000000"
	d="
M97.500000,65.000000 
	C100.950645,69.218170 100.508064,74.774384 102.478539,79.508934 
	C103.835098,82.768402 103.820290,86.521233 106.000000,89.500000 
"/>
<path fill="none" opacity="1.000000" stroke="#000000" stroke-linecap="round" stroke-linejoin="round" stroke-width="5.000000"
	d="
M425.500000,61.500000 
	C423.343994,66.678085 424.147217,72.134682 424.007629,77.500198 
	C423.948395,79.777931 424.328857,82.139992 422.500000,84.000000 
"/>
<path fill="none" opacity="1.000000" stroke="#000000" stroke-linecap="round" stroke-linejoin="round" stroke-width="4.000000"
	d="
M88.000000,79.499992 
	C84.166664,79.833328 80.333336,80.166664 76.500000,80.499992 
"/>
<path fill="none" opacity="1.000000" stroke="#000000" stroke-linecap="round" stroke-linejoin="round" stroke-width="4.000000"
	d="
M179.500000,79.500000 
	C175.666672,79.833328 171.833328,80.166664 168.000000,80.500000 
"/>
<path fill="none" opacity="1.000000" stroke="#000000" stroke-linecap="round" stroke-linejoin="round" stroke-width="4.000000"
	d="
M443.500000,79.500000 
	C439.666656,79.833336 435.833344,80.166672 432.000000,80.500000 
"/>
<path fill="none" opacity="1.000000" stroke="#000000" stroke-linecap="round" stroke-linejoin="round" stroke-width="4.000000"
	d="
M136.000000,79.500000 
	C132.333328,79.833336 128.666672,80.166664 125.000000,80.500000 
"/>
<path fill="none" opacity="1.000000" stroke="#000000" stroke-linecap="round" stroke-linejoin="round" stroke-width="4.000000"
	d="
M219.000000,79.500008 
	C215.333328,79.833336 211.666672,80.166672 208.000000,80.500008 
"/>
<path fill="none" opacity="1.000000" stroke="#000000" stroke-linecap="round" stroke-linejoin="round" stroke-width="4.000000"
	d="
M380.500000,76.500000 
	C377.477570,78.203613 374.175873,77.254128 371.000000,77.500000 
"/>
<path fill="none" opacity="1.000000" stroke="#000000" stroke-linecap="round" stroke-linejoin="round" stroke-width="4.000000"
	d="
M401.500000,76.500000 
	C398.573059,78.518173 395.029938,76.634094 392.000000,78.000000 
"/>
<path fill="none" opacity="1.000000" stroke="#000000" stroke-linecap="round" stroke-linejoin="round" stroke-width="4.000000"
	d="
M202.500000,62.000000 
	C198.860809,62.771049 195.180710,62.706238 191.500641,62.489178 
	C189.411026,62.365925 187.434189,62.771839 185.500000,63.500000 
"/>
</svg>